<svg id="visual" viewBox="0 0 900 600" width="900" height="600" xmlns="http://www.w3.org/2000/svg" xmlns:xlink="http://www.w3.org/1999/xlink" version="1.1"><rect x="0" y="0" width="900" height="600" fill="#daeaf0"></rect><defs><linearGradient id="grad1_0" x1="33.3%" y1="0%" x2="100%" y2="100%"><stop offset="20%" stop-color="#3b474b" stop-opacity="1"></stop><stop offset="80%" stop-color="#3b474b" stop-opacity="1"></stop></linearGradient></defs><defs><linearGradient id="grad1_1" x1="33.3%" y1="0%" x2="100%" y2="100%"><stop offset="20%" stop-color="#3b474b" stop-opacity="1"></stop><stop offset="80%" stop-color="#daeaf0" stop-opacity="1"></stop></linearGradient></defs><defs><linearGradient id="grad2_0" x1="0%" y1="0%" x2="66.7%" y2="100%"><stop offset="20%" stop-color="#3b474b" stop-opacity="1"></stop><stop offset="80%" stop-color="#3b474b" stop-opacity="1"></stop></linearGradient></defs><defs><linearGradient id="grad2_1" x1="0%" y1="0%" x2="66.7%" y2="100%"><stop offset="20%" stop-color="#daeaf0" stop-opacity="1"></stop><stop offset="80%" stop-color="#3b474b" stop-opacity="1"></stop></linearGradient></defs><g transform="translate(900, 0)"><path d="M0 432.7C-61.7 432.5 -123.3 432.3 -165.6 399.7C-207.8 367.2 -230.6 302.3 -255.3 255.3C-279.9 208.2 -306.4 178.9 -336.3 139.3C-366.2 99.7 -399.4 49.9 -432.7 0L0 0Z" fill="#869499"></path><path d="M0 216.3C-30.8 216.2 -61.7 216.1 -82.8 199.9C-103.9 183.6 -115.3 151.2 -127.6 127.6C-140 104.1 -153.2 89.4 -168.1 69.6C-183.1 49.9 -199.7 24.9 -216.3 0L0 0Z" fill="#3b474b"></path></g><g transform="translate(0, 600)"><path d="M0 -432.7C59.1 -430.2 118.2 -427.6 165.6 -399.7C213 -371.8 248.7 -318.5 270.1 -270.1C291.5 -221.7 298.6 -178.1 323.4 -133.9C348.1 -89.7 390.4 -44.9 432.7 0L0 0Z" fill="#869499"></path><path d="M0 -216.3C29.5 -215.1 59.1 -213.8 82.8 -199.9C106.5 -185.9 124.3 -159.3 135.1 -135.1C145.8 -110.8 149.3 -89.1 161.7 -67C174 -44.9 195.2 -22.4 216.3 0L0 0Z" fill="#3b474b"></path></g></svg>