<svg id="visual" viewBox="0 0 960 540" width="960" height="540" xmlns="http://www.w3.org/2000/svg" xmlns:xlink="http://www.w3.org/1999/xlink" version="1.1"><rect x="0" y="0" width="960" height="540" fill="#002233"></rect><path d="M0 141L22.8 155C45.7 169 91.3 197 137 191C182.7 185 228.3 145 274 130.2C319.7 115.3 365.3 125.7 411.2 138.3C457 151 503 166 548.8 178C594.7 190 640.3 199 686 191.7C731.7 184.3 777.3 160.7 823 164.2C868.7 167.7 914.3 198.3 937.2 213.7L960 229L960 0L937.2 0C914.3 0 868.7 0 823 0C777.3 0 731.7 0 686 0C640.3 0 594.7 0 548.8 0C503 0 457 0 411.2 0C365.3 0 319.7 0 274 0C228.3 0 182.7 0 137 0C91.3 0 45.7 0 22.8 0L0 0Z" fill="#0066FF" stroke-linecap="round" stroke-linejoin="miter"></path></svg>