<svg id="visual" viewBox="0 0 960 540" width="960" height="540" xmlns="http://www.w3.org/2000/svg" xmlns:xlink="http://www.w3.org/1999/xlink" version="1.1"><rect x="0" y="0" width="960" height="540" fill="#3b474b"></rect><path d="M0 302L22.8 278.8C45.7 255.7 91.3 209.3 137 219.3C182.7 229.3 228.3 295.7 274 320.2C319.7 344.7 365.3 327.3 411.2 306.2C457 285 503 260 548.8 240.2C594.7 220.3 640.3 205.7 686 218C731.7 230.3 777.3 269.7 823 263.7C868.7 257.7 914.3 206.3 937.2 180.7L960 155L960 541L937.2 541C914.3 541 868.7 541 823 541C777.3 541 731.7 541 686 541C640.3 541 594.7 541 548.8 541C503 541 457 541 411.2 541C365.3 541 319.7 541 274 541C228.3 541 182.7 541 137 541C91.3 541 45.7 541 22.8 541L0 541Z" fill="#daeaf0" stroke-linecap="round" stroke-linejoin="miter"></path></svg>